<?xml version="1.0" encoding="UTF-8"?>
<svg xmlns="http://www.w3.org/2000/svg" viewBox="35 20 115 85">
<style>.cls-1{fill:#718574;}</style>
<path class="cls-1" d="M53.94,87.52l1.2-57,3.48.24-1.32,56.76c-.08,4.24.78,7.6,2.58,10.08,1.8,2.48,4.34,3.72,7.62,3.72.24,0,.36.24.36.72s-.12.72-.36.72c-1.76,0-3.56-.04-5.4-.12-1.84-.08-3.92-.12-6.24-.12-2.56,0-4.88.04-6.96.12-2.08.08-4,.12-5.76.12-.24,0-.36-.24-.36-.72s.12-.72.36-.72c3.28,0,5.88-1.24,7.8-3.72,1.92-2.48,2.92-5.84,3-10.08ZM139.86,101.32c.16,0,.24.24.24.72s-.08.72-.24.72c-2.08,0-4.44-.04-7.08-.12-2.64-.08-5.4-.12-8.28-.12s-5.72.04-8.28.12c-2.56.08-4.88.12-6.96.12-.24,0-.36-.24-.36-.72s.12-.72.36-.72c3.76,0,6.18-.52,7.26-1.56,1.08-1.04,1.5-3.28,1.26-6.72l-2.76-53.28,6.12-9.6-30.6,71.76c-.08.32-.38.48-.9.48s-.86-.16-1.02-.48L54.9,37.72c-3.04-5.68-6.68-8.52-10.92-8.52-.24,0-.36-.24-.36-.72s.12-.72.36-.72c1.68,0,3.44.04,5.28.12,1.84.08,3.4.12,4.68.12,2.08,0,3.9-.04,5.46-.12,1.56-.08,2.78-.12,3.66-.12,1.12,0,1.98.4,2.58,1.2.6.8,1.58,2.48,2.94,5.04l26.88,50.4-6,10.8,28.08-64.44c.48-1.12.98-1.9,1.5-2.34.52-.44,1.22-.66,2.1-.66.8,0,1.64.04,2.52.12.88.08,1.92.12,3.12.12,2.56,0,4.74-.04,6.54-.12,1.8-.08,3.58-.12,5.34-.12.24,0,.36.24.36.72s-.12.72-.36.72c-3.68,0-6.38.76-8.1,2.28-1.72,1.52-2.5,3.88-2.34,7.08l2.88,54.48c.16,2.32.46,4.08.9,5.28.44,1.2,1.26,2,2.46,2.4,1.2.4,3,.6,5.4.6Z"/>
</svg>