<?xml version="1.0" encoding="UTF-8"?><svg id="Lager_1" xmlns="http://www.w3.org/2000/svg" width="64.74mm" height="55.46mm" viewBox="0 0 183.53 157.2"><defs><style>.cls-1{fill:#718574;}</style></defs><path class="cls-1" d="M24.29,130.73l.21-10.46.46.04-.19,10.42c-.01.71.1,1.21.35,1.5.24.29.72.43,1.42.43.03,0,.04.04.04.13s-.01.13-.04.13c-.31,0-.63,0-.96-.02-.33-.01-.69-.02-1.08-.02-.34,0-.66,0-.97.02-.31.01-.6.02-.88.02-.03,0-.04-.04-.04-.13s.01-.13.04-.13c.59,0,1-.14,1.25-.43.25-.29.37-.79.39-1.5ZM38.72,132.66s.06.04.06.13-.02.13-.06.13c-.34,0-.71,0-1.12-.02-.41-.01-.85-.02-1.31-.02-.43,0-.83,0-1.2.02-.36.01-.69.02-.99.02-.03,0-.04-.04-.04-.13s.01-.13.04-.13c.7,0,1.15-.09,1.35-.27.2-.18.29-.57.26-1.18l-.38-10.35.61-.78-5.5,12.68c-.01.06-.07.08-.17.08s-.16-.03-.19-.08l-5.12-11.24c-.45-.99-1.17-1.49-2.16-1.49-.03,0-.04-.04-.04-.13s.01-.13.04-.13c.21,0,.43,0,.67.02.24.01.43.02.59.02.2,0,.38,0,.55-.02s.29-.02.38-.02c.2,0,.35.06.46.19.11.13.28.43.5.9l4.81,10.4-.55.88,5.17-11.84c.07-.15.16-.28.28-.38.12-.1.23-.15.35-.15.07,0,.18,0,.32.02.14.01.3.02.48.02.36,0,.66,0,.88-.02.22-.01.46-.02.71-.02.03,0,.04.04.04.13s-.01.13-.04.13c-.69,0-1.19.09-1.51.26-.32.18-.48.56-.46,1.14l.4,9.76c.01.41.07.71.16.92.09.21.27.35.54.42.27.07.66.1,1.2.1Z"/><path class="cls-1" d="M58.6,132.66c.06,0,.08.04.08.13s-.03.13-.08.13c-.39,0-.79-.01-1.21-.04-.41-.03-.81-.04-1.19-.04-.43,0-.81.01-1.12.04-.31.03-.66.04-1.04.04-.06,0-.08-.04-.08-.13s.03-.13.08-.13c.78,0,1.28-.1,1.48-.31.2-.21.17-.61-.09-1.2l-4.75-10.21.4-.36-4.05,9.74c-.35.85-.38,1.46-.08,1.81.29.35.92.52,1.87.52.07,0,.1.04.1.13s-.04.13-.1.13c-.42,0-.81-.01-1.16-.04-.35-.03-.79-.04-1.32-.04-.49,0-.89.01-1.19.04-.3.03-.66.04-1.08.04-.06,0-.08-.04-.08-.13s.03-.13.08-.13c.38,0,.71-.07.99-.21.28-.14.54-.39.79-.76s.51-.88.79-1.55l4.39-10.56s.07-.06.14-.06.1.02.12.06l4.87,10.46c.32.7.61,1.24.86,1.63s.5.65.76.79c.25.14.53.21.84.21ZM48.48,125.79l.31-.4h4.33l.15.4h-4.79Z"/><path class="cls-1" d="M69.33,119.72c1.12,0,1.97.23,2.55.7.58.47.87,1.11.87,1.92,0,.52-.12,1.01-.35,1.48s-.55.88-.96,1.24c-.41.36-.88.64-1.41.85-.53.21-1.1.32-1.7.32-.13,0-.27,0-.44-.01-.17,0-.32-.02-.46-.03v5.02c0,.41.04.71.13.92s.26.35.54.42.68.1,1.21.1c.04,0,.06.04.06.13s-.02.13-.06.13c-.34,0-.7,0-1.1-.02s-.84-.02-1.33-.02c-.45,0-.88,0-1.3.02s-.8.02-1.13.02c-.03,0-.04-.04-.04-.13s.01-.13.04-.13c.53,0,.93-.03,1.21-.1s.46-.21.56-.42c.1-.21.15-.52.15-.92v-9.72c0-.41-.05-.71-.14-.91-.09-.2-.27-.34-.54-.42-.27-.08-.67-.12-1.2-.12-.04,0-.06-.04-.06-.13s.02-.13.06-.13c.32,0,.69.01,1.1.03.41.02.84.03,1.29.03.36,0,.79-.02,1.27-.06s.88-.06,1.19-.06ZM71.58,123.06c0-.76-.12-1.36-.37-1.81s-.57-.77-.98-.97c-.41-.2-.87-.29-1.39-.29-.34,0-.61.02-.82.07-.21.05-.36.18-.45.39-.09.21-.14.57-.14,1.07v4.16c.2.01.41.03.64.05.23.02.44.03.62.03,1.02,0,1.76-.21,2.21-.64.45-.43.67-1.12.67-2.07ZM75.28,132.91c-.24,0-.63-.28-1.18-.85-.55-.57-1.2-1.37-1.97-2.42-.77-1.04-1.63-2.29-2.58-3.73l1.01-.34c1.2,1.76,2.23,3.16,3.07,4.19.84,1.03,1.58,1.77,2.23,2.22.64.45,1.27.67,1.87.67.04,0,.06.04.06.13s-.02.13-.06.13h-2.44Z"/><path class="cls-1" d="M87.02,131.21c0,.41.04.71.13.92s.26.35.54.42c.27.07.67.1,1.21.1.03,0,.04.04.04.13s-.01.13-.04.13c-.34,0-.71,0-1.11-.02-.41-.01-.85-.02-1.34-.02-.46,0-.9,0-1.31.02s-.79.02-1.12.02c-.04,0-.06-.04-.06-.13s.02-.13.06-.13c.53,0,.93-.03,1.21-.1.27-.07.46-.21.55-.42.09-.21.14-.52.14-.92v-9.72c0-.41-.04-.71-.14-.91-.09-.2-.27-.34-.55-.42-.27-.08-.67-.12-1.21-.12-.04,0-.06-.04-.06-.13s.02-.13.06-.13c.34,0,.71.01,1.12.03.41.02.85.03,1.31.03.49,0,.94-.01,1.35-.03.41-.02.78-.03,1.1-.03.03,0,.04.04.04.13s-.01.13-.04.13c-.53,0-.93.04-1.2.13-.27.08-.45.23-.54.44s-.14.52-.14.92v9.68Z"/><path class="cls-1" d="M100.16,121.51v9.62c0,.39.05.69.14.88s.27.33.53.4c.26.07.64.11,1.14.11h2.69c.74,0,1.31-.25,1.7-.74s.64-1.13.76-1.93c0-.04.04-.06.12-.05.08,0,.12.03.12.07-.04.36-.08.8-.13,1.31-.04.51-.06.98-.06,1.42,0,.21-.1.31-.31.31h-9.66s-.04-.04-.04-.13.01-.13.04-.13c.53,0,.93-.03,1.2-.1.27-.07.44-.21.54-.42s.14-.52.14-.92v-9.72c0-.41-.05-.71-.14-.91s-.27-.34-.54-.42c-.27-.08-.67-.12-1.2-.12-.03,0-.04-.04-.04-.13s.01-.13.04-.13c.34,0,.71.01,1.12.03.41.02.84.03,1.29.03.48,0,.92-.01,1.33-.03.41-.02.78-.03,1.1-.03.03,0,.04.04.04.13s-.01.13-.04.13c-.53,0-.93.04-1.2.12-.27.08-.45.22-.54.43s-.14.52-.14.92Z"/><path class="cls-1" d="M117.8,121.51v9.62c0,.39.04.69.14.88.09.2.27.33.52.4.26.07.64.11,1.14.11h2.69c.74,0,1.31-.25,1.7-.74.39-.49.64-1.13.76-1.93,0-.04.04-.06.12-.05s.12.03.12.07c-.04.36-.08.8-.13,1.31-.04.51-.06.98-.06,1.42,0,.21-.11.31-.32.31h-9.66s-.04-.04-.04-.13.01-.13.04-.13c.53,0,.93-.03,1.2-.1s.44-.21.54-.42c.09-.21.14-.52.14-.92v-9.72c0-.41-.04-.71-.14-.91-.09-.2-.27-.34-.54-.42s-.67-.12-1.2-.12c-.03,0-.04-.04-.04-.13s.01-.13.04-.13c.34,0,.71.01,1.12.03.41.02.84.03,1.29.03.48,0,.92-.01,1.33-.03.41-.02.78-.03,1.1-.03.03,0,.04.04.04.13s-.01.13-.04.13c-.53,0-.93.04-1.2.12s-.44.22-.54.43c-.09.21-.14.52-.14.92Z"/><path class="cls-1" d="M135.74,131.21c0,.41.04.71.13.92s.26.35.54.42c.27.07.68.1,1.21.1.03,0,.04.04.04.13s-.01.13-.04.13c-.34,0-.71,0-1.11-.02s-.85-.02-1.34-.02c-.46,0-.9,0-1.31.02s-.79.02-1.12.02c-.04,0-.06-.04-.06-.13s.02-.13.06-.13c.53,0,.93-.03,1.21-.1.27-.07.46-.21.55-.42s.14-.52.14-.92v-9.72c0-.41-.05-.71-.14-.91s-.27-.34-.55-.42c-.27-.08-.68-.12-1.21-.12-.04,0-.06-.04-.06-.13s.02-.13.06-.13c.34,0,.71.01,1.12.03.41.02.85.03,1.31.03.49,0,.94-.01,1.35-.03.41-.02.78-.03,1.1-.03.03,0,.04.04.04.13s-.01.13-.04.13c-.53,0-.93.04-1.2.13s-.44.23-.54.44c-.09.21-.14.52-.14.92v9.68Z"/><path class="cls-1" d="M147.62,130.73v-10.46l.46.04v10.42c0,.71.12,1.21.36,1.5.24.29.65.43,1.24.43.04,0,.06.04.06.13s-.02.13-.06.13c-.27,0-.54,0-.83-.02s-.61-.02-.96-.02-.66,0-.97.02c-.31.01-.6.02-.88.02-.03,0-.04-.04-.04-.13s.01-.13.04-.13c.62,0,1.03-.14,1.25-.43.22-.29.33-.79.33-1.5ZM158.19,133.14s-.04.04-.11.05c-.07,0-.12,0-.15-.01l-9.49-11.68c-.48-.57-.9-.96-1.27-1.17s-.72-.3-1.06-.3c-.04,0-.06-.04-.06-.13s.02-.13.06-.13c.24,0,.48,0,.74.02s.48.02.67.02.38,0,.56-.02c.17-.01.3-.02.39-.02.18,0,.31.08.38.24.07.16.27.44.59.85l8.59,10.67.17,1.6ZM158.19,121.99v11.15l-.46-.65v-10.5c0-.71-.11-1.22-.34-1.51-.22-.29-.63-.44-1.22-.44-.03,0-.04-.04-.04-.13s.01-.13.04-.13c.28,0,.56.01.85.03.29.02.61.03.96.03.32,0,.64-.01.97-.03.32-.02.62-.03.88-.03.04,0,.06.04.06.13s-.02.13-.06.13c-.6,0-1.03.15-1.27.44s-.37.8-.37,1.51Z"/><path class="cls-1" d="M53.94,87.52l1.2-57,3.48.24-1.32,56.76c-.08,4.24.78,7.6,2.58,10.08,1.8,2.48,4.34,3.72,7.62,3.72.24,0,.36.24.36.72s-.12.72-.36.72c-1.76,0-3.56-.04-5.4-.12-1.84-.08-3.92-.12-6.24-.12-2.56,0-4.88.04-6.96.12-2.08.08-4,.12-5.76.12-.24,0-.36-.24-.36-.72s.12-.72.36-.72c3.28,0,5.88-1.24,7.8-3.72,1.92-2.48,2.92-5.84,3-10.08ZM139.86,101.32c.16,0,.24.24.24.72s-.08.72-.24.72c-2.08,0-4.44-.04-7.08-.12-2.64-.08-5.4-.12-8.28-.12s-5.72.04-8.28.12c-2.56.08-4.88.12-6.96.12-.24,0-.36-.24-.36-.72s.12-.72.36-.72c3.76,0,6.18-.52,7.26-1.56,1.08-1.04,1.5-3.28,1.26-6.72l-2.76-53.28,6.12-9.6-30.6,71.76c-.08.32-.38.48-.9.48s-.86-.16-1.02-.48L54.9,37.72c-3.04-5.68-6.68-8.52-10.92-8.52-.24,0-.36-.24-.36-.72s.12-.72.36-.72c1.68,0,3.44.04,5.28.12,1.84.08,3.4.12,4.68.12,2.08,0,3.9-.04,5.46-.12,1.56-.08,2.78-.12,3.66-.12,1.12,0,1.98.4,2.58,1.2.6.8,1.58,2.48,2.94,5.04l26.88,50.4-6,10.8,28.08-64.44c.48-1.12.98-1.9,1.5-2.34.52-.44,1.22-.66,2.1-.66.8,0,1.64.04,2.52.12.88.08,1.92.12,3.12.12,2.56,0,4.74-.04,6.54-.12,1.8-.08,3.58-.12,5.34-.12.24,0,.36.24.36.72s-.12.72-.36.72c-3.68,0-6.38.76-8.1,2.28-1.72,1.52-2.5,3.88-2.34,7.08l2.88,54.48c.16,2.32.46,4.08.9,5.28.44,1.2,1.26,2,2.46,2.4,1.2.4,3,.6,5.4.6Z"/></svg>